<svg width="200" height="150" viewBox="0 0 200 150" fill="none" xmlns="http://www.w3.org/2000/svg">
<g id="Frame 1">
<g id="background">
<circle id="Ellipse 6" cx="99.1073" cy="78.2508" r="62.6786" fill="#FEFFFF"/>
<circle id="Ellipse 5" cx="40.3573" cy="35.9305" r="3.92857" fill="#D8F0EC"/>
<circle id="Ellipse 4" cx="143.75" cy="10.3937" r="7.32143" fill="#D8F0EC"/>
<circle id="Ellipse 3" cx="41.6069" cy="118.607" r="6.96429" fill="#D8F0EC"/>
<circle id="Ellipse 2" cx="166.249" cy="111.822" r="6.96429" fill="#D8F0EC"/>
<circle id="Ellipse 1" cx="152.678" cy="119.68" r="3.39286" fill="#D8F0EC"/>
<path id="Star 4" d="M169.521 90.334L170.614 95.5009L175.708 96.6104L170.614 97.72L169.521 102.887L168.427 97.72L163.334 96.6104L168.427 95.5009L169.521 90.334Z" fill="white"/>
<path id="Star 3" d="M162.98 37.5804C163.06 37.2028 163.599 37.2028 163.679 37.5804L164.375 40.8708C164.404 41.0082 164.511 41.1158 164.649 41.1458L167.914 41.8572C168.289 41.9388 168.289 42.4734 167.914 42.5551L164.649 43.2665C164.511 43.2964 164.404 43.4041 164.375 43.5415L163.679 46.8319C163.599 47.2095 163.06 47.2095 162.98 46.8319L162.283 43.5415C162.254 43.4041 162.147 43.2964 162.01 43.2665L158.744 42.5551C158.37 42.4734 158.37 41.9388 158.744 41.8572L162.01 41.1458C162.147 41.1158 162.254 41.0082 162.283 40.8708L162.98 37.5804Z" fill="#519A97"/>
<path id="Star 2" d="M33.2936 80.7933C33.3735 80.4157 33.9125 80.4157 33.9924 80.7933L35.1863 86.4335C35.2154 86.5709 35.3224 86.6786 35.4597 86.7085L41.0416 87.9245C41.4165 88.0062 41.4165 88.5408 41.0416 88.6224L35.4597 89.8384C35.3224 89.8684 35.2154 89.976 35.1863 90.1134L33.9924 95.7536C33.9125 96.1312 33.3735 96.1312 33.2936 95.7536L32.0998 90.1134C32.0707 89.976 31.9637 89.8684 31.8264 89.8384L26.2444 88.6224C25.8696 88.5408 25.8696 88.0062 26.2444 87.9245L31.8264 86.7085C31.9637 86.6786 32.0707 86.5709 32.0998 86.4335L33.2936 80.7933Z" fill="#519A97"/>
<path id="Star 1" d="M55.5445 20.7641C55.3374 20.72 55.3374 20.4245 55.5445 20.3805L58.6751 19.7147C58.7505 19.6987 58.8096 19.6399 58.8259 19.5645L59.5 16.456C59.5446 16.2499 59.8385 16.2499 59.8832 16.456L60.5573 19.5645C60.5736 19.6399 60.6327 19.6987 60.7081 19.7147L63.8387 20.3805C64.0458 20.4245 64.0458 20.72 63.8387 20.7641L60.7081 21.4298C60.6327 21.4458 60.5736 21.5046 60.5573 21.58L59.8832 24.6886C59.8385 24.8946 59.5446 24.8946 59.5 24.6886L58.8259 21.58C58.8096 21.5046 58.7505 21.4458 58.6751 21.4298L55.5445 20.7641Z" fill="#519A97"/>
</g>
<g id="illustration">
<circle id="Ellipse 2_2" cx="112.141" cy="55.2146" r="39.7036" fill="#81C0BD" stroke="#519A97" stroke-width="1.30719"/>
<circle id="Ellipse 1_2" cx="112.141" cy="55.2157" r="33.275" fill="#D8F0EC" stroke="#519A97" stroke-width="1.30719"/>
<path id="Vector 7" d="M60.4424 128.654L81.8682 98.8954L82.8205 98.1812L84.9631 97.7051H88.0579L89.7244 98.8954L91.3908 99.6096L92.8192 101.276L94.0096 103.895L75.4405 138.89L73.2979 140.081H70.6792L67.1082 138.89L64.2514 137.7L61.6327 134.129L60.4424 132.701V128.654Z" fill="#357F7C"/>
<path id="Vector 6" d="M98.0578 92.4668L92.626 101.275" stroke="#519A97" stroke-width="1.30719"/>
<path id="Vector 5" d="M91.673 89.6094L86.4355 97.4655" stroke="#519A97" stroke-width="1.30719"/>
<path id="Vector 4" d="M83.2965 97.7051L60.2041 129.368" stroke="#519A97" stroke-width="1.30719"/>
<path id="Vector 3" d="M93.7722 103.418L75.2031 139.366" stroke="#519A97" stroke-width="1.30719"/>
<path id="Vector 2" d="M82.8213 98.1808L83.2132 97.9626C84.0705 97.4852 85.0557 97.288 86.0307 97.3986V97.3986C86.4288 97.4437 86.8196 97.5396 87.1934 97.6838L87.8644 97.9427L88.0906 98.0181C89.3508 98.4382 90.496 99.1459 91.4353 100.085V100.085L92.1737 100.824C92.4739 101.124 92.7361 101.46 92.9545 101.824V101.824C93.2101 102.25 93.4032 102.71 93.528 103.191L93.7723 104.132" stroke="#519A97" stroke-width="1.30719"/>
<path id="Vector 1" d="M75.6787 138.888L74.6647 139.344C73.6825 139.786 72.6231 140.031 71.5466 140.064V140.064C70.7106 140.091 69.8754 139.989 69.07 139.764L68.387 139.573L68.1579 139.495C66.134 138.808 64.2909 137.674 62.7654 136.178V136.178L61.8835 135.312C61.194 134.636 60.6772 133.803 60.3768 132.885V132.885C60.0031 131.743 59.9793 130.515 60.3086 129.359L60.4425 128.889" stroke="#519A97" stroke-width="1.30719"/>
</g>
</g>
</svg>
