<svg width="25" height="24" viewBox="0 0 25 24" fill="none" xmlns="http://www.w3.org/2000/svg">
<g id="Layer_1" clip-path="url(#clip0_9019_371833)">
<path id="Vector" d="M23.8169 23.9994H0.848145C0.621506 23.8927 0.439158 23.7104 0.33252 23.4838L0.33252 23.1088C0.620645 22.4288 1.23814 22.6238 1.78564 22.5875V22.32C1.78564 20.7967 1.78564 19.2733 1.78564 17.75C1.78564 17.25 2.07002 16.9694 2.57252 16.9688C3.4396 16.9688 4.30669 16.9688 5.17377 16.9688C5.73627 16.9688 6.00314 17.2363 6.00377 17.8025C6.00377 19.31 6.00377 20.8177 6.00377 22.3256V22.5756H7.41002V16.165C7.41002 15.5237 7.65627 15.2806 8.30564 15.2806H10.79C11.3675 15.2806 11.6288 15.5444 11.6288 16.1288V22.58H13.035V22.2906C13.035 19.361 13.035 16.4317 13.035 13.5025C13.035 12.9838 13.3131 12.7038 13.8275 12.7031C14.6794 12.7031 15.5306 12.7031 16.3825 12.7031C16.9975 12.7031 17.2538 12.9563 17.2538 13.5656V22.575H18.66V8.825C18.66 8.29188 18.935 8.01687 19.4669 8.01562H21.9975C22.6275 8.01562 22.8788 8.26562 22.8788 8.89062V22.5875C23.4269 22.6231 24.0431 22.4306 24.3319 23.1088V23.4838C24.2247 23.7098 24.0428 23.8919 23.8169 23.9994Z" fill="#0E4943"/>
<path id="Vector_2" d="M24.3327 5.15625C24.0665 5.70625 23.6071 5.86188 23.1983 5.5175C23.072 5.40414 22.9802 5.2575 22.9333 5.09438C22.7171 4.34438 22.5227 3.59063 22.3196 2.8375C22.3058 2.78688 22.2846 2.7375 22.2571 2.66937C22.2221 2.71687 22.1946 2.74563 22.1771 2.7775C20.069 6.215 17.2046 8.88812 13.8402 11.0538C11.2615 12.7137 8.48522 13.9237 5.48584 14.5975C4.09193 14.9119 2.66955 15.0832 1.24084 15.1088C0.80709 15.1163 0.50084 14.9838 0.32959 14.5781V14.25C0.48459 13.8319 0.79584 13.695 1.22709 13.6912C4.21084 13.6631 7.03271 12.9213 9.73022 11.6875C13.6596 9.89062 17.0052 7.3325 19.6821 3.92688C20.0908 3.40625 20.4465 2.84313 20.8227 2.29625C20.919 2.15563 20.999 2.00375 21.1165 1.80687C20.9015 1.86 20.7333 1.8975 20.5665 1.9425C19.8508 2.13375 19.1365 2.33 18.4202 2.51875C18.0758 2.60938 17.7883 2.5125 17.6077 2.25875C17.4458 2.03312 17.4152 1.70562 17.5921 1.4925C17.7126 1.34346 17.8733 1.23217 18.0552 1.17188C19.379 0.80125 20.7077 0.4525 22.0315 0.095625C22.1283 0.069375 22.2221 0.033125 22.3171 0H22.6452C22.9727 0.125 23.1302 0.375 23.2121 0.710625C23.3908 1.43563 23.5908 2.15625 23.7871 2.87687C23.9652 3.52812 24.1508 4.1775 24.3327 4.82812V5.15625Z" fill="#0E4943"/>
</g>
<defs>
<clipPath id="clip0_9019_371833">
<rect width="24" height="24" fill="white" transform="translate(0.33252)"/>
</clipPath>
</defs>
</svg>
